{
    "asset" : {
        "generator" : "Khronos glTF Blender I/O v1.1.46",
        "version" : "2.0"
    },
    "scene" : 0,
    "scenes" : [
        {
            "name" : "Scene",
            "nodes" : [
                0,
                1,
                2,
                3,
                4,
                5,
                6,
                7
            ]
        }
    ],
    "nodes" : [
        {
            "mesh" : 0,
            "name" : "ExternalBoxLarge"
        },
        {
            "mesh" : 1,
            "name" : "InternalBoxLarge"
        },
        {
            "mesh" : 2,
            "name" : "ExternalBoxMedium",
            "translation" : [
                0,
                0,
                -0.39986348152160645
            ]
        },
        {
            "mesh" : 3,
            "name" : "InternalBoxMedium",
            "scale" : [
                0.608562707901001,
                0.6516249775886536,
                0.36945632100105286
            ],
            "translation" : [
                0,
                0,
                -0.39986348152160645
            ]
        },
        {
            "mesh" : 4,
            "name" : "ExternalBoxSmall",
            "translation" : [
                -0.2855084240436554,
                0,
                -0.3970088064670563
            ]
        },
        {
            "mesh" : 5,
            "name" : "InternalBoxSmall",
            "translation" : [
                -0.2855084240436554,
                0,
                -0.3970088064670563
            ]
        },
        {
            "name" : "Lamp",
            "rotation" : [
                0.16907575726509094,
                0.7558803558349609,
                -0.27217137813568115,
                0.570947527885437
            ],
            "translation" : [
                4.076245307922363,
                5.903861999511719,
                -1.0054539442062378
            ]
        },
        {
            "name" : "Camera",
            "rotation" : [
                0.483536034822464,
                0.33687159419059753,
                -0.20870360732078552,
                0.7804827094078064
            ],
            "translation" : [
                7.481131553649902,
                5.34366512298584,
                6.5076398849487305
            ]
        }
    ],
    "materials" : [
        {
            "doubleSided" : true,
            "name" : "ExternalBox",
            "pbrMetallicRoughness" : {}
        },
        {
            "doubleSided" : true,
            "name" : "InternalBox",
            "pbrMetallicRoughness" : {}
        }
    ],
    "meshes" : [
        {
            "name" : "Mesh_16.002",
            "primitives" : [
                {
                    "attributes" : {
                        "POSITION" : 0,
                        "NORMAL" : 1,
                        "TEXCOORD_0" : 2
                    },
                    "indices" : 3,
                    "material" : 0
                }
            ]
        },
        {
            "name" : "Mesh_31.002",
            "primitives" : [
                {
                    "attributes" : {
                        "POSITION" : 4,
                        "NORMAL" : 5,
                        "TEXCOORD_0" : 6
                    },
                    "indices" : 7,
                    "material" : 1
                }
            ]
        },
        {
            "name" : "Mesh_16.000",
            "primitives" : [
                {
                    "attributes" : {
                        "POSITION" : 8,
                        "NORMAL" : 9,
                        "TEXCOORD_0" : 10
                    },
                    "indices" : 3,
                    "material" : 0
                }
            ]
        },
        {
            "name" : "Mesh_31.000",
            "primitives" : [
                {
                    "attributes" : {
                        "POSITION" : 11,
                        "NORMAL" : 12,
                        "TEXCOORD_0" : 13
                    },
                    "indices" : 7,
                    "material" : 1
                }
            ]
        },
        {
            "name" : "Mesh_16.001",
            "primitives" : [
                {
                    "attributes" : {
                        "POSITION" : 14,
                        "NORMAL" : 15,
                        "TEXCOORD_0" : 16
                    },
                    "indices" : 3,
                    "material" : 0
                }
            ]
        },
        {
            "name" : "Mesh_31.001",
            "primitives" : [
                {
                    "attributes" : {
                        "POSITION" : 17,
                        "NORMAL" : 18,
                        "TEXCOORD_0" : 19
                    },
                    "indices" : 7,
                    "material" : 1
                }
            ]
        }
    ],
    "accessors" : [
        {
            "bufferView" : 0,
            "componentType" : 5126,
            "count" : 96,
            "max" : [
                0.138615220785141,
                0.10000813007354736,
                0.10672085732221603
            ],
            "min" : [
                -0.13938476145267487,
                8.095567864074837e-06,
                -0.106279157102108
            ],
            "type" : "VEC3"
        },
        {
            "bufferView" : 1,
            "componentType" : 5126,
            "count" : 96,
            "type" : "VEC3"
        },
        {
            "bufferView" : 2,
            "componentType" : 5126,
            "count" : 96,
            "type" : "VEC2"
        },
        {
            "bufferView" : 3,
            "componentType" : 5123,
            "count" : 96,
            "type" : "SCALAR"
        },
        {
            "bufferView" : 4,
            "componentType" : 5126,
            "count" : 36,
            "max" : [
                0.13838592171669006,
                0.09900444000959396,
                0.10417262464761734
            ],
            "min" : [
                -0.13914857804775238,
                0.0007272257935255766,
                -0.10417263209819794
            ],
            "type" : "VEC3"
        },
        {
            "bufferView" : 5,
            "componentType" : 5126,
            "count" : 36,
            "type" : "VEC3"
        },
        {
            "bufferView" : 6,
            "componentType" : 5126,
            "count" : 36,
            "type" : "VEC2"
        },
        {
            "bufferView" : 7,
            "componentType" : 5123,
            "count" : 36,
            "type" : "SCALAR"
        },
        {
            "bufferView" : 8,
            "componentType" : 5126,
            "count" : 96,
            "max" : [
                0.09922456741333008,
                0.10000813007354736,
                0.09970634430646896
            ],
            "min" : [
                -0.09977542608976364,
                8.096710189420264e-06,
                -0.09929367899894714
            ],
            "type" : "VEC3"
        },
        {
            "bufferView" : 9,
            "componentType" : 5126,
            "count" : 96,
            "type" : "VEC3"
        },
        {
            "bufferView" : 10,
            "componentType" : 5126,
            "count" : 96,
            "type" : "VEC2"
        },
        {
            "bufferView" : 11,
            "componentType" : 5126,
            "count" : 36,
            "max" : [
                0.16305071115493774,
                0.1519346982240677,
                0.2645569145679474
            ],
            "min" : [
                -0.16394931077957153,
                0.001116020604968071,
                -0.2645569145679474
            ],
            "type" : "VEC3"
        },
        {
            "bufferView" : 12,
            "componentType" : 5126,
            "count" : 36,
            "type" : "VEC3"
        },
        {
            "bufferView" : 13,
            "componentType" : 5126,
            "count" : 36,
            "type" : "VEC2"
        },
        {
            "bufferView" : 14,
            "componentType" : 5126,
            "count" : 96,
            "max" : [
                0.09909377247095108,
                0.0998762995004654,
                0.050037648528814316
            ],
            "min" : [
                -0.09964390099048615,
                8.094109034573194e-06,
                -0.049830544739961624
            ],
            "type" : "VEC3"
        },
        {
            "bufferView" : 15,
            "componentType" : 5126,
            "count" : 96,
            "type" : "VEC3"
        },
        {
            "bufferView" : 16,
            "componentType" : 5126,
            "count" : 96,
            "type" : "VEC2"
        },
        {
            "bufferView" : 17,
            "componentType" : 5126,
            "count" : 36,
            "max" : [
                0.09922657161951065,
                0.09865619987249374,
                0.04910719394683838
            ],
            "min" : [
                -0.09977342933416367,
                0.0007246768800541759,
                -0.04910719022154808
            ],
            "type" : "VEC3"
        },
        {
            "bufferView" : 18,
            "componentType" : 5126,
            "count" : 36,
            "type" : "VEC3"
        },
        {
            "bufferView" : 19,
            "componentType" : 5126,
            "count" : 36,
            "type" : "VEC2"
        }
    ],
    "bufferViews" : [
        {
            "buffer" : 0,
            "byteLength" : 1152,
            "byteOffset" : 0
        },
        {
            "buffer" : 0,
            "byteLength" : 1152,
            "byteOffset" : 1152
        },
        {
            "buffer" : 0,
            "byteLength" : 768,
            "byteOffset" : 2304
        },
        {
            "buffer" : 0,
            "byteLength" : 192,
            "byteOffset" : 3072
        },
        {
            "buffer" : 0,
            "byteLength" : 432,
            "byteOffset" : 3264
        },
        {
            "buffer" : 0,
            "byteLength" : 432,
            "byteOffset" : 3696
        },
        {
            "buffer" : 0,
            "byteLength" : 288,
            "byteOffset" : 4128
        },
        {
            "buffer" : 0,
            "byteLength" : 72,
            "byteOffset" : 4416
        },
        {
            "buffer" : 0,
            "byteLength" : 1152,
            "byteOffset" : 4488
        },
        {
            "buffer" : 0,
            "byteLength" : 1152,
            "byteOffset" : 5640
        },
        {
            "buffer" : 0,
            "byteLength" : 768,
            "byteOffset" : 6792
        },
        {
            "buffer" : 0,
            "byteLength" : 432,
            "byteOffset" : 7560
        },
        {
            "buffer" : 0,
            "byteLength" : 432,
            "byteOffset" : 7992
        },
        {
            "buffer" : 0,
            "byteLength" : 288,
            "byteOffset" : 8424
        },
        {
            "buffer" : 0,
            "byteLength" : 1152,
            "byteOffset" : 8712
        },
        {
            "buffer" : 0,
            "byteLength" : 1152,
            "byteOffset" : 9864
        },
        {
            "buffer" : 0,
            "byteLength" : 768,
            "byteOffset" : 11016
        },
        {
            "buffer" : 0,
            "byteLength" : 432,
            "byteOffset" : 11784
        },
        {
            "buffer" : 0,
            "byteLength" : 432,
            "byteOffset" : 12216
        },
        {
            "buffer" : 0,
            "byteLength" : 288,
            "byteOffset" : 12648
        }
    ],
    "buffers" : [
        {
            "byteLength" : 12936,
            "uri" : "data:application/octet-stream;base64,"
        }
    ]
}
